<svg width="772" height="677" viewBox="0 0 772 677" fill="none" xmlns="http://www.w3.org/2000/svg">
<path fill-rule="evenodd" clip-rule="evenodd" d="M120.337 54.0479C96.727 36.839 30.2222 -12.2747 0 2.85457C5.41765 19.1097 14.4012 35.1744 24.5095 48.9342C26.3443 51.3431 28.1814 53.7707 29.9989 56.1796C30.8816 57.3578 31.7473 58.502 32.5953 59.6456C34.4299 62.0889 36.2461 64.5331 38.0807 66.9764C48.9164 81.6031 59.7541 95.9877 72.2688 109.228C80.6288 117.997 88.4526 126.973 96.051 136.452C96.9337 137.578 97.7983 138.672 98.6637 139.763H102.126C111.144 154.338 111.144 154.339 123.555 166.418C127.051 169.849 130.427 173.365 133.75 176.987C140.345 184.387 146.715 192.014 154.054 198.686H157.516C157.135 202.516 157.137 202.515 160.685 205.773C162.104 207.194 163.489 208.582 164.874 209.951C167.54 212.636 170.273 215.237 173.094 217.749C175.414 218.893 177.716 220.037 180.018 221.215C184.968 230.556 184.969 230.556 193.207 237.488C204.06 246.742 204.061 246.743 228.484 271.473C232.431 275.476 236.36 279.427 240.532 283.205C242.661 285.06 244.791 286.897 246.903 288.734C248.305 289.93 249.637 291.108 250.987 292.269C260.437 300.432 269.629 308.802 278.682 317.398C284.394 322.805 290.072 328.227 295.975 333.426C303.175 339.683 310.185 346.079 317.091 352.665C326.525 361.676 335.926 370.6 346.087 378.815C350.414 382.263 354.689 385.713 358.809 389.404C372.604 402.072 387.073 413.875 401.578 425.712C411.029 433.406 420.445 441.137 429.688 449.091C438.827 456.994 448.037 464.792 457.505 472.296C462.23 476.022 466.941 479.78 471.649 483.54C472.791 484.459 473.917 485.361 475.042 486.262C481.065 491.079 487.088 495.916 493.042 500.838C504.293 510.179 515.873 519.018 527.592 527.753C532.455 531.357 537.284 534.98 542.13 538.619C552.1 546.14 562.09 553.641 572.182 560.989C576.319 563.987 580.456 566.972 584.558 570.004C600.656 581.91 616.649 594.475 633.854 604.734C636.623 606.293 639.41 607.853 642.179 609.412C647.978 614.143 653.796 618.373 660.131 622.324C661.877 623.415 661.879 623.416 663.609 624.472C697.639 645.598 732.119 669.063 772 677C766.548 643.345 766.547 643.344 746.036 614.611H742.574C742.886 611.076 742.884 611.076 740.79 608.391C739.925 607.265 739.077 606.171 738.247 605.08C720.747 582.793 720.747 582.793 702.762 560.888H699.3V555.688C696.167 551.824 696.167 551.824 692.377 548.756H688.915C685.591 539.45 685.59 539.45 677.887 532.154C670.15 523.905 662.777 515.76 656.77 506.159C655.922 504.738 655.109 503.351 654.296 501.965C642.283 482.035 634.147 460.769 630.668 437.668C630.461 435.97 630.253 434.307 630.063 432.644C627.639 413.841 628.728 396.215 630.823 377.395C633.125 358.141 634.267 339.822 632.554 320.482C632.415 318.957 632.261 317.467 632.123 315.994C630.34 297.642 627.657 279.497 621.392 262.063C620.803 260.556 620.248 259.082 619.677 257.609C597.279 197.629 559.352 153.123 503.858 121.461C455.843 94.4787 389.722 83.2663 335.908 98.3254C325.817 101.15 315.69 103.891 305.426 106.022C248.114 116.732 199.457 106.194 150.921 73.5789C145.815 70.113 140.776 66.5788 135.428 63.4941C130.184 60.5656 125.2 57.5828 120.337 54.0479ZM286.739 180.119C325.374 163.136 364.304 149.236 407.283 154.608C408.876 154.868 410.436 155.113 411.976 155.373C451.666 161.473 486.667 177.885 515.833 205.63C550.97 240.949 571.064 286.215 571.739 336.038C571.756 338.17 571.758 340.249 571.776 342.311C571.862 360.109 569.941 376.001 564.645 392.984C554.311 425.772 546.987 460.261 563.552 492.218C567.221 498.993 570.18 504.678 571.219 512.371C563.812 507.242 556.767 501.854 549.81 496.119C545.327 492.428 540.861 488.718 536.291 485.131C528.156 478.84 520.072 472.462 512.058 466.015C505.48 460.729 498.901 455.462 492.254 450.263C481.28 441.702 470.478 433.001 459.902 423.954C455.627 420.298 451.354 416.673 447.01 413.121C429.649 399.015 429.647 399.016 395.532 369.401C387.985 362.833 380.418 356.28 372.819 349.764C357.414 336.577 342.201 323.198 327.16 309.612C325.654 308.225 324.182 306.906 322.711 305.572C321.205 304.22 319.748 302.902 318.294 301.585C314.365 298.033 310.437 294.496 306.421 291.065C299.152 284.844 292.35 278.295 285.618 271.485C281.221 266.962 276.822 262.473 272.079 258.296C264.152 251.503 256.692 244.397 249.353 236.963C239.452 226.894 229.618 216.774 219.094 207.363C213.538 202.494 208.053 197.571 202.618 192.58C201.631 191.679 200.677 190.795 199.725 189.911C196.627 187.07 193.531 184.209 190.416 181.368C193.565 180.277 193.566 180.276 197.34 179.635C209.057 187.432 222.921 188.922 236.733 188.923C238.446 188.888 240.129 188.854 241.808 188.837C258.458 188.889 271.491 186.721 286.739 180.119Z" fill="#34C053"/>
<path d="M162.847 250.433C159.628 246.829 159.627 246.829 155.785 247.211C150.437 259.705 150.436 259.705 146.386 272.702C127.623 334.241 133.888 402.038 163.59 458.985C164.473 460.631 165.322 462.244 166.17 463.838C172.124 475.657 178.563 486.072 187.027 496.261C188.169 497.613 189.296 498.932 190.404 500.232C223.136 539.606 269.059 572.291 319.533 583.885C321.523 584.318 323.479 584.734 325.417 585.15C389.219 599.673 451.811 587.611 508.897 557.422V553.955C497.888 543.731 497.89 543.728 485.635 534.994C477.69 529.327 470.383 523.211 463.165 516.643C462.231 515.776 461.33 514.928 460.43 514.096C453.299 515.084 446.668 516.749 439.814 518.88C396.454 532.449 346.898 532.637 305.304 512.257C303.314 511.113 301.374 510.006 299.453 508.897C297.394 507.736 295.335 506.592 293.293 505.431C291.268 504.252 289.292 503.109 287.336 501.965C265.198 489.834 246.746 472.122 231.946 451.707C203.957 410.097 193.538 360.844 201.638 311.471C202.798 304.521 203.524 297.555 204.251 290.536C199.716 287.036 195.458 283.465 191.338 279.479C189.832 277.937 188.379 276.444 186.925 274.972C183.637 271.644 180.364 268.317 177.092 264.972C175.414 263.257 173.736 261.525 172.058 259.81C169.618 257.349 169.615 257.349 167.227 254.924C165.738 253.399 164.283 251.923 162.847 250.433Z" fill="#34C053"/>
</svg>
